; OM File Header - Saved 2009/06/15 12:44:33
; (6.04 :patc (om-make-point 127 74) (om-make-point 50 50) (om-make-point 500 400) "No documentation " 183 0 nil "2009/06/15 12:44:20")
; End File Header
(in-package :om)(load-lib-for (quote ("morphologie")))(setf *om-current-persistent* (om-load-patch1 "ins-ptrn" (quote ((om-load-boxcall (quote bastype) "aux3" (quote t) (quote nil) (om-make-point 247 254) (om-make-point 20 28) 0 "0" nil) (om-load-boxcall (quote bastype) "aux2" (quote t) (quote nil) (om-make-point 178 228) (om-make-point 100 28) (list (list 1 2 3 4) (list 1 2)) "((1 2 3 4) (1 2))" nil) (om-load-boxcall (quote genfun) "INS-PTRN" (quote morph::ins-ptrn) (quote ((om-load-inputfun (quote input-funbox) "no documentation" "SEQ" (list 1 2 3 4 1 2 1 5 1 2 5 3 4)) (om-load-inputfun (quote input-funbox) "no documentation" "PTRN" (list (list 1 2 3 4) (list 1 2))) (om-load-inputfun (quote input-funbox) "no documentation" "PROF" 1))) (om-make-point 144 287) (om-make-point 147 61) nil nil nil 1) (om-load-boxcomment "comment" (om-make-point 123 86) (quote "it finds the patternd entered in the second input with a number of inside elements defined in the third input") "" (om-make-point 306 264) nil (om-make-color 0 0 0) (om-make-font "Geneva" 10 :family "Geneva" :style (quote (:plain)) :mode (quote nil))) (om-load-boxcomment "comment" (om-make-point 105 46) (quote "It creates a random list of elements") "" (om-make-point 157 61) nil (om-make-color 0 0 0) (om-make-font "Geneva" 10 :family "Geneva" :style (quote (:plain)) :mode (quote nil))) (om-load-boxcall (quote bastype) "aux1" (quote t) (quote nil) (om-make-point 185 131) (om-make-point 26 28) 50 "50" nil) (om-load-boxcall (quote genfun) "REPEAT-N" (quote repeat-n) (quote ((om-load-inputfun (quote input-funbox) "patch" "SELF" nil) (om-load-inputfun (quote input-funbox) "times" "NUM" 0))) (om-make-point 133 161) nil nil nil nil 1) (om-load-boxcall (quote bastype) "aux" (quote t) (quote nil) (om-make-point 77 47) (om-make-point 70 28) (list 1 2 3 4 5) "(1 2 3 4 5)" nil) (om-load-boxcall (quote genfun) "NTH-RANDOM" (quote nth-random) (quote ((om-load-inputfun (quote input-funbox) "the list" "LIST" nil))) (om-make-point 87 85) nil nil nil nil 1))) (quote ((6 0 2 0 nil 0) (1 0 2 1 nil 0) (0 0 2 2 nil 0) (8 0 6 0 nil 0) (5 0 6 1 nil 0) (7 0 8 0 nil 0))) nil 6.04))
