; OM File Header - Saved 2009/06/15 12:44:33
; (6.04 :patc (om-make-point 212 139) (om-make-point 50 50) (om-make-point 461 440) "No documentation " 183 0 nil "2009/06/15 12:44:20")
; End File Header
(in-package :om)(load-lib-for (quote ("morphologie")))(setf *om-current-persistent* (om-load-patch1 "ptrn-recogn" (quote ((om-load-boxcomment "comment" (om-make-point 328 71) (quote "Evaluation of some fonctions \"ptrn-xx\" display ugly results as:$(common-lisp-user::c ....);$In order to ameliorate the display, please select the listener window,type : (in-package :common-lisp-user) then return.") "" (om-make-point 49 314) nil (om-make-color 0 0 0) (om-make-font "Geneva" 10 :family "Geneva" :style (quote (:plain)) :mode (quote nil))) (om-load-boxcomment "comment" (om-make-point 122 46) (quote "It creates a random list of elements") "" (om-make-point 191 70) nil (om-make-color 0 0 0) (om-make-font "Geneva" 10 :family "Geneva" :style (quote (:plain)) :mode (quote nil))) (om-load-boxcall (quote bastype) "aux1" (quote t) (quote nil) (om-make-point 181 133) (om-make-point 26 28) 50 "50" nil) (om-load-boxcall (quote genfun) "REPEAT-N" (quote repeat-n) (quote ((om-load-inputfun (quote input-funbox) "patch" "SELF" nil) (om-load-inputfun (quote input-funbox) "times" "NUM" 0))) (om-make-point 133 161) nil nil nil nil 1) (om-load-boxcall (quote bastype) "aux" (quote t) (quote nil) (om-make-point 82 31) (om-make-point 77 28) (list (quote a) (quote b) (quote c) (quote d) (quote e) (quote f)) "(a b c d e f)" nil) (om-load-boxcall (quote genfun) "NTH-RANDOM" (quote nth-random) (quote ((om-load-inputfun (quote input-funbox) "the list" "LIST" nil))) (om-make-point 106 68) nil nil nil nil 1) (om-load-boxcall (quote genfun) "PTRN-RECOGN" (quote morph::ptrn-recogn) (quote ((om-load-inputfun (quote input-funbox) "no documentation" "LIST" (list 1 2 3 1 2 3 1 2 1 2)))) (om-make-point 112 249) nil nil nil nil 1))) (quote ((5 0 3 0 nil 0) (2 0 3 1 nil 0) (4 0 5 0 nil 0) (3 0 6 0 nil 0))) nil 6.04))
