; OM File Header - Saved 2009/06/15 12:44:33
; (6.04 :patc (om-make-point 287 81) (om-make-point 50 50) (om-make-point 500 400) "No documentation " 183 0 nil "2009/06/15 12:44:20")
; End File Header
(in-package :om)(load-lib-for (quote ("morphologie")))(setf *om-current-persistent* (om-load-patch1 "ptrn-recogn-ctrl" (quote ((om-load-boxcall (quote bastype) "aux2" (quote t) (quote nil) (om-make-point 177 243) (om-make-point 20 28) 3 "3" nil) (om-load-boxcall (quote genfun) "PTRN-RECOGN-CTRL" (quote morph::ptrn-recogn-ctrl) (quote ((om-load-inputfun (quote input-funbox) "no documentation" "LIST" (list 1 2 3 1 2 3 1 2 1 2)) (om-load-inputfun (quote input-funbox) "no documentation" "N" 3))) (om-make-point 112 281) nil nil nil "ptrn-recogn-ctrl" 1) (om-load-boxcomment "comment" (om-make-point 102 63) (quote "it recognises patterns with a given lenght") "" (om-make-point 199 222) nil (om-make-color 0 0 0) (om-make-font "Geneva" 10 :family "Geneva" :style (quote (:plain)) :mode (quote nil))) (om-load-boxcomment "comment" (om-make-point 109 44) (quote "It creates a random list of elements") "" (om-make-point 162 36) nil (om-make-color 0 0 0) (om-make-font "Geneva" 10 :family "Geneva" :style (quote (:plain)) :mode (quote nil))) (om-load-boxcall (quote bastype) "aux1" (quote t) (quote nil) (om-make-point 179 133) (om-make-point 26 28) 50 "50" nil) (om-load-boxcall (quote genfun) "REPEAT-N" (quote repeat-n) (quote ((om-load-inputfun (quote input-funbox) "patch" "SELF" nil) (om-load-inputfun (quote input-funbox) "times" "NUM" 0))) (om-make-point 133 161) nil nil nil nil 1) (om-load-boxcall (quote bastype) "aux" (quote t) (quote nil) (om-make-point 77 47) (om-make-point 77 28) (list (quote a) (quote b) (quote c) (quote d) (quote e) (quote f)) "(a b c d e f)" nil) (om-load-boxcall (quote genfun) "NTH-RANDOM" (quote nth-random) (quote ((om-load-inputfun (quote input-funbox) "the list" "LIST" nil))) (om-make-point 87 85) nil nil nil nil 1))) (quote ((5 0 1 0 nil 0) (0 0 1 1 nil 0) (7 0 5 0 nil 0) (4 0 5 1 nil 0) (6 0 7 0 nil 0))) nil 6.04))
