; OM File Header - Saved 2009/06/15 12:44:33
; (6.04 :patc (om-make-point 60 75) (om-make-point 50 50) (om-make-point 639 367) "No documentation " 183 0 nil "2009/06/15 12:44:33")
; End File Header
(in-package :om)(load-lib-for (quote ("morphologie")))(setf *om-current-persistent* (om-load-patch1 "distance ex1" (quote ((om-load-boxcomment "comment" (om-make-point 205 64) (quote "If costs = 1, the distance is the minimum of operations to do to go from seq1 to seq2") "" (om-make-point 34 252) nil (om-make-color 0 0 0) (om-make-font "Geneva" 10 :family "Geneva" :style (quote (:plain)) :mode (quote nil))) (om-load-boxcomment "comment1" (om-make-point 172 49) (quote "In absolute mode gives the minimum editing cost to go from seq1 to seq2") "" (om-make-point 43 192) nil (om-make-color 0 0 0) (om-make-font "Geneva" 10 :family "Geneva" :style (quote (:plain)) :mode (quote nil))) (om-load-boxcall (quote genfun) "DISTANCE1" (quote morph::distance) (quote ((om-load-inputfun (quote input-funbox) "no documentation" "SEQ1" (list (quote morph::a) (quote morph::b) (quote morph::c) (quote morph::d) (quote morph::e))) (om-load-inputfun (quote input-funbox) "no documentation" "SEQ2" (list (quote morph::a) (quote morph::b) (quote morph::c) (quote morph::d) (quote morph::e))) (om-load-inputfun (quote input-funbox) "no documentation" "CHANGE" 1) (om-load-inputfun (quote input-funbox) "no documentation" "INS/SUP" 1) (om-load-inputfunmenu1 (quote input-funmenu) "no documentation" "SCALE" 2 (list (list "relative" 1) (list "absolute" 2))) (om-load-inputfun (quote input-funbox) "no documentation" "INEX" nil))) (om-make-point 40 129) (om-make-point 188 61) nil nil nil 1) (om-load-boxcomment "comment" (om-make-point 197 72) (quote "In relative mode gives the distance in % to the length of the shorter sequence") "" (om-make-point 330 192) nil (om-make-color 0 0 0) (om-make-font "Geneva" 10 :family "Geneva" :style (quote (:plain)) :mode (quote nil))) (om-load-boxcall (quote bastype) "aux1" (quote t) (quote nil) (om-make-point 339 53) (om-make-point 95 28) (list (quote a) (quote b) (quote c) (quote d) (quote t) (quote r) (quote o) (quote p)) "(a b c d t r o p)" nil) (om-load-boxcall (quote bastype) "aux" (quote t) (quote nil) (om-make-point 19 53) (om-make-point 124 28) (list (quote a) (quote b) (quote c) (quote d) (quote a) (quote b) (quote c) (quote t) (quote r) (quote o) (quote p)) "(a b c d a b c t r o p)" nil) (om-load-boxcall (quote genfun) "DISTANCE" (quote morph::distance) (quote ((om-load-inputfun (quote input-funbox) "no documentation" "SEQ1" (list (quote morph::a) (quote morph::b) (quote morph::c) (quote morph::d) (quote morph::e))) (om-load-inputfun (quote input-funbox) "no documentation" "SEQ2" (list (quote morph::a) (quote morph::b) (quote morph::c) (quote morph::d) (quote morph::e))) (om-load-inputfun (quote input-funbox) "no documentation" "CHANGE" 1) (om-load-inputfun (quote input-funbox) "no documentation" "INS/SUP" 1) (om-load-inputfunmenu1 (quote input-funmenu) "no documentation" "SCALE" 1 (list (list "relative" 1) (list "absolute" 2))) (om-load-inputfun (quote input-funbox) "no documentation" "INEX" nil))) (om-make-point 326 129) (om-make-point 188 61) nil nil nil 1))) (quote ((5 0 2 0 nil 0) (4 0 2 1 nil 0) (5 0 6 0 nil 0) (4 0 6 1 nil 0))) nil 6.04))
