; OM File Header - Saved 2009/06/15 12:44:33
; (6.04 :patc (om-make-point 227 75) (om-make-point 50 50) (om-make-point 871 283) "No documentation " 183 0 nil "2009/06/15 12:44:33")
; End File Header
(in-package :om)(load-lib-for (quote ("morphologie")))(setf *om-current-persistent* (om-load-patch1 "multi-distance" (quote ((om-load-boxcomment "comment" (om-make-point 284 55) (quote "The distances are computed dimensions by dimensions, then scaled with the weigths and then processed has euclidian distances") "" (om-make-point 418 150) nil (om-make-color 0 0 0) (om-make-font "Geneva" 10 :family "Geneva" :style (quote (:plain)) :mode (quote nil))) (om-load-boxcomment "comment1" (om-make-point 321 54) (quote "<- Each element of the sequence has 4 dimensions") "" (om-make-point 519 40) nil (om-make-color 0 0 0) (om-make-font "Geneva" 10 :family "Geneva" :style (quote (:plain)) :mode (quote nil))) (om-load-boxcomment "comment" (om-make-point 165 33) (quote "<- weigths for each dimension") "" (om-make-point 393 111) nil (om-make-color 0 0 0) (om-make-font "Geneva" 10 :family "Geneva" :style (quote (:plain)) :mode (quote nil))) (om-load-boxcall (quote bastype) "aux2" (quote t) (quote nil) (om-make-point 303 119) (om-make-point 60 28) (list 1 1 1 1) "(1 1 1 1)" nil) (om-load-boxcall (quote bastype) "aux1" (quote t) (quote nil) (om-make-point 280 43) (om-make-point 199 28) (list (list (quote a) 1.0 (quote e) 8) (list (quote a) 2.0 (quote e) 8) (list (quote c) 2.0 (quote e) 8)) "((a 1.0 e 8) (a 2.0 e 8) (c 2.0 e 8))" nil) (om-load-boxcall (quote bastype) "aux" (quote t) (quote nil) (om-make-point 23 40) (om-make-point 140 28) (list (list (quote a) 1.0 (quote e) 8) (list (quote a) 2.0 (quote e) 8)) "((a 1.0 e 8) (a 2.0 e 8))" nil) (om-load-boxcall (quote genfun) "MULTI-DISTANCE" (quote morph::multi-distance) (quote ((om-load-inputfun (quote input-funbox) "no documentation" "SEQ1" nil) (om-load-inputfun (quote input-funbox) "no documentation" "SEQ2" nil) (om-load-inputfun (quote input-funbox) "no documentation" "CHANGE" 1) (om-load-inputfun (quote input-funbox) "no documentation" "INS/SUP" 1) (om-load-inputfun (quote input-funbox) "no documentation" "WGTH" (list 1 1 1 1)) (om-load-inputfun (quote input-funbox) "no documentation" "INEX" nil))) (om-make-point 131 145) (om-make-point 282 61) nil nil nil 1))) (quote ((5 0 6 0 nil 0) (4 0 6 1 nil 0) (3 0 6 4 nil 0))) nil 6.04))
